<svg width="32" height="32" viewBox="0 0 32 32" fill="none" xmlns="http://www.w3.org/2000/svg">
<path d="M9.78457 17.8004C7.33882 17.8004 5.37006 19.7694 5.37006 22.2151C5.37006 24.6609 7.33882 26.6298 9.78457 26.6298H22.2151C24.6609 26.6298 26.6299 24.6609 26.6299 22.2151C26.6299 19.7694 24.6609 17.8004 22.2151 17.8004H9.78457Z" fill="#E8E9EE"/>
<path d="M15.9998 5.37C15.3469 5.36999 14.7004 5.49858 14.0972 5.74843C13.494 5.99828 12.9459 6.3645 12.4842 6.82617C12.0225 7.28784 11.6563 7.83593 11.4065 8.43914C11.1566 9.04234 11.028 9.68886 11.028 10.3418C11.028 10.9947 11.1566 11.6412 11.4064 12.2444C11.6563 12.8476 12.0225 13.3957 12.4842 13.8574C12.9459 14.319 13.494 14.6852 14.0972 14.9351C14.7004 15.185 15.3469 15.3135 15.9998 15.3135C16.6528 15.3135 17.2993 15.1849 17.9025 14.9351C18.5057 14.6852 19.0538 14.319 19.5155 13.8574C19.9771 13.3957 20.3434 12.8476 20.5932 12.2444C20.8431 11.6412 20.9717 10.9947 20.9717 10.3418C20.9717 9.68886 20.8431 9.04234 20.5932 8.43914C20.3434 7.83593 19.9771 7.28784 19.5155 6.82617C19.0538 6.3645 18.5057 5.99829 17.9025 5.74843C17.2993 5.49858 16.6528 5.36999 15.9998 5.37Z" fill="#7C7D85"/>
</svg>
