<svg width="14" height="14" viewBox="0 0 14 14" fill="none" xmlns="http://www.w3.org/2000/svg">
<path d="M10.9142 5.78876C10.86 5.73409 10.7955 5.69069 10.7244 5.66107C10.6533 5.63146 10.5771 5.61621 10.5001 5.61621C10.423 5.61621 10.3468 5.63146 10.2757 5.66107C10.2046 5.69069 10.1401 5.73409 10.0859 5.78876L7.41422 8.46043C7.35999 8.5151 7.29548 8.5585 7.22439 8.58811C7.15331 8.61773 7.07706 8.63298 7.00005 8.63298C6.92305 8.63298 6.8468 8.61773 6.77572 8.58811C6.70463 8.5585 6.64012 8.5151 6.58589 8.46043L3.91422 5.78876C3.85999 5.73409 3.79548 5.69069 3.72439 5.66107C3.65331 5.63146 3.57706 5.61621 3.50006 5.61621C3.42305 5.61621 3.3468 5.63146 3.27572 5.66107C3.20463 5.69069 3.14012 5.73409 3.08589 5.78876C2.97724 5.89805 2.91626 6.0459 2.91626 6.20001C2.91626 6.35412 2.97724 6.50197 3.08589 6.61126L5.76339 9.28876C6.09151 9.61648 6.5363 9.80055 7.00005 9.80055C7.46381 9.80055 7.9086 9.61648 8.23672 9.28876L10.9142 6.61126C11.0229 6.50197 11.0839 6.35412 11.0839 6.20001C11.0839 6.0459 11.0229 5.89805 10.9142 5.78876Z" fill="#BDC1CA"/>
</svg>
