<svg width="32" height="32" viewBox="0 0 32 32" fill="none" xmlns="http://www.w3.org/2000/svg">
<path d="M10.5558 5.37012C8.11179 5.37012 6.29471 7.34375 6.14418 9.78483L5.37768 22.2152C5.22715 24.6563 7.34529 26.63 9.78931 26.63H22.2108C24.6548 26.63 26.7729 24.6563 26.6224 22.2152L25.8559 9.78483C25.7054 7.34375 23.8883 5.37012 21.4443 5.37012H10.5558Z" fill="#040707"/>
<path d="M11.6153 9.55884C11.7421 9.55881 11.8677 9.58379 11.9849 9.63234C12.102 9.68088 12.2085 9.75205 12.2982 9.84178C12.3879 9.93151 12.459 10.038 12.5076 10.1553C12.5561 10.2725 12.5811 10.3982 12.5811 10.5251C12.5811 11.7492 13.2315 12.8774 14.2908 13.4894C15.3501 14.1014 16.6508 14.1014 17.7101 13.4894C18.7694 12.8774 19.42 11.7492 19.42 10.5251C19.42 10.2689 19.5218 10.0231 19.7029 9.84188C19.8839 9.66067 20.1295 9.55885 20.3856 9.55884C20.6417 9.55885 20.8873 9.66066 21.0684 9.84187C21.2495 10.0231 21.3512 10.2689 21.3512 10.5251C21.3512 12.4366 20.3302 14.2068 18.676 15.1626C17.0218 16.1183 14.9794 16.1183 13.3252 15.1626C11.671 14.2068 10.6497 12.4366 10.6497 10.5251C10.6497 10.2689 10.7514 10.0231 10.9325 9.84187C11.1136 9.66066 11.3592 9.55885 11.6153 9.55884Z" fill="white"/>
</svg>
