<svg width="428" height="926" viewBox="0 0 428 926" fill="none" xmlns="http://www.w3.org/2000/svg">
<g clip-path="url(#clip0_458_1562)">
<rect width="428" height="926" fill="#040707"/>
<path d="M-54.9245 782.139C-84.7659 676.309 -175.428 538.255 -161.518 434.68C-147.608 331.106 -30.1137 261.785 64.5039 310.121C158.894 359.446 230.408 526.429 302.681 604C375.335 682.179 448.368 670.338 510.708 698.225C573.655 725.731 624.919 792.738 623.454 858.029C621.761 924.309 566.958 988.264 508.794 1037.38C451.011 1087.11 389.868 1122 327.712 1129.57C265.555 1137.15 202.995 1117.02 133.662 1096.9C64.7109 1077.39 -10.4039 1057.5 -32.9661 1010.64C-54.9199 963.397 -24.7021 888.576 -54.9245 782.139Z" fill="#3E3E41"/>
</g>
<defs>
<clipPath id="clip0_458_1562">
<rect width="428" height="926" fill="white"/>
</clipPath>
</defs>
</svg>
