<svg width="32" height="32" viewBox="0 0 32 32" fill="none" xmlns="http://www.w3.org/2000/svg">
<path d="M14.5942 22.4946C13.4523 22.4946 12.5265 23.4203 12.5265 24.5623C12.5265 25.7042 13.4523 26.63 14.5942 26.63C15.7363 26.6301 16.6622 25.7043 16.6622 24.5623C16.6622 23.4202 15.7363 22.4945 14.5942 22.4946ZM20.3432 22.4946C19.2012 22.4946 18.2755 23.4203 18.2755 24.5623C18.2755 25.7042 19.2012 26.63 20.3432 26.63C21.4851 26.63 22.4109 25.7042 22.4109 24.5623C22.4109 23.4203 21.4851 22.4946 20.3432 22.4946Z" fill="#E8E9EE"/>
<path d="M6.33662 5.37012C5.80285 5.37001 5.37009 5.80265 5.37006 6.33641C5.37009 6.87015 5.80285 7.30281 6.33662 7.30269H7.52191L10.2456 17.4665C10.8786 19.8288 11.7195 20.396 14.1653 20.396H22.2151C24.6609 20.396 26.6299 18.427 26.6299 15.9813V12.8607C26.6299 12.1074 26.1164 11.5953 25.2661 11.4968L10.2092 9.76608L9.19686 6.08651C9.0837 5.66414 8.70104 5.37032 8.26376 5.37012H6.33662Z" fill="#7C7D85"/>
</svg>
