<svg width="32" height="32" viewBox="0 0 32 32" fill="none" xmlns="http://www.w3.org/2000/svg">
<path d="M8.26932 5.37C7.88859 5.36998 7.51158 5.44497 7.15983 5.59066C6.80808 5.73636 6.48846 5.9499 6.21924 6.21912C5.95003 6.48834 5.73647 6.80796 5.59077 7.15971C5.44508 7.51146 5.37011 7.88847 5.37012 8.2692C5.37011 8.64993 5.44508 9.02694 5.59077 9.37869C5.73647 9.73044 5.95003 10.0501 6.21924 10.3193C6.48846 10.5885 6.80808 10.802 7.15983 10.9477C7.51158 11.0934 7.88859 11.1684 8.26932 11.1684C8.65005 11.1684 9.02706 11.0934 9.37881 10.9477C9.73057 10.802 10.0502 10.5885 10.3194 10.3193C10.5886 10.0501 10.8022 9.73044 10.9479 9.37869C11.0936 9.02694 11.1685 8.64993 11.1685 8.2692C11.1685 7.88847 11.0936 7.51146 10.9479 7.15971C10.8022 6.80796 10.5886 6.48834 10.3194 6.21912C10.0502 5.9499 9.73057 5.73636 9.37881 5.59066C9.02706 5.44497 8.65005 5.36998 8.26932 5.37ZM15.5856 6.33634C15.073 6.33638 14.5814 6.54003 14.219 6.90251C13.8566 7.265 13.653 7.75661 13.653 8.2692C13.653 8.78174 13.8567 9.27328 14.2191 9.6357C14.5815 9.99812 15.0731 10.2017 15.5856 10.2018H24.6972C25.2098 10.2018 25.7014 9.99823 26.0639 9.6358C26.4263 9.27337 26.63 8.78179 26.6301 8.2692C26.6301 8.01537 26.5801 7.76402 26.483 7.5295C26.3858 7.29499 26.2435 7.08191 26.064 6.90243C25.8845 6.72294 25.6714 6.58056 25.4369 6.48343C25.2024 6.3863 24.951 6.33632 24.6972 6.33634H15.5856ZM8.26932 20.832C7.88859 20.832 7.51158 20.907 7.15983 21.0527C6.80808 21.1983 6.48846 21.4119 6.21924 21.6811C5.95003 21.9503 5.73647 22.2699 5.59077 22.6217C5.44508 22.9735 5.37011 23.3505 5.37012 23.7312C5.37017 24.5001 5.67565 25.2374 6.21935 25.7811C6.76306 26.3247 7.50044 26.6301 8.26932 26.6301C9.0382 26.6301 9.77561 26.3247 10.3193 25.7811C10.863 25.2374 11.1685 24.5001 11.1685 23.7312C11.1685 23.3505 11.0936 22.9735 10.9479 22.6217C10.8022 22.2699 10.5886 21.9503 10.3194 21.6811C10.0502 21.4119 9.73057 21.1983 9.37881 21.0527C9.02706 20.907 8.65005 20.832 8.26932 20.832ZM15.5856 21.7983C15.0731 21.7984 14.5815 22.002 14.2191 22.3644C13.8567 22.7268 13.653 23.2184 13.653 23.7309C13.653 24.2435 13.8566 24.7351 14.219 25.0976C14.5814 25.4601 15.073 25.6637 15.5856 25.6638H24.6972C24.951 25.6638 25.2024 25.6138 25.4369 25.5167C25.6714 25.4196 25.8845 25.2772 26.064 25.0977C26.2435 24.9182 26.3858 24.7051 26.483 24.4706C26.5801 24.2361 26.6301 23.9847 26.6301 23.7309C26.63 23.2183 26.4263 22.7267 26.0639 22.3643C25.7014 22.0019 25.2098 21.7983 24.6972 21.7983H15.5856Z" fill="#040707"/>
<path d="M8.26932 13.101C7.88859 13.1009 7.51158 13.1759 7.15983 13.3216C6.80808 13.4673 6.48846 13.6809 6.21924 13.9501C5.95003 14.2193 5.73647 14.5389 5.59077 14.8907C5.44508 15.2424 5.37011 15.6194 5.37012 16.0002C5.37017 16.769 5.67565 17.5064 6.21935 18.0501C6.76306 18.5937 7.50044 18.8991 8.26932 18.8991C9.0382 18.8991 9.77561 18.5937 10.3193 18.0501C10.863 17.5064 11.1685 16.769 11.1685 16.0002C11.1685 15.6194 11.0936 15.2424 10.9479 14.8907C10.8022 14.5389 10.5886 14.2193 10.3194 13.9501C10.0502 13.6809 9.73057 13.4673 9.37881 13.3216C9.02706 13.1759 8.65005 13.1009 8.26932 13.101ZM15.5856 14.0673C15.073 14.0673 14.5814 14.271 14.219 14.6335C13.8566 14.996 13.653 15.4876 13.653 16.0002C13.653 16.5127 13.8567 17.0042 14.2191 17.3667C14.5815 17.7291 15.0731 17.9327 15.5856 17.9327H24.6972C25.2098 17.9328 25.7014 17.7292 26.0639 17.3667C26.4263 17.0043 26.63 16.5127 26.6301 16.0002C26.6301 15.7463 26.5801 15.495 26.483 15.2605C26.3858 15.0259 26.2435 14.8129 26.064 14.6334C25.8845 14.4539 25.6714 14.3115 25.4369 14.2144C25.2024 14.1173 24.951 14.0673 24.6972 14.0673H15.5856Z" fill="#040707"/>
</svg>
