<svg width="22" height="22" viewBox="0 0 22 22" fill="none" xmlns="http://www.w3.org/2000/svg">
<path d="M12.9442 11L16.5 7.44062C16.7309 7.17823 16.8531 6.83778 16.842 6.48847C16.8308 6.13916 16.6871 5.80721 16.44 5.56008C16.1928 5.31295 15.8609 5.1692 15.5116 5.15805C15.1622 5.1469 14.8218 5.26918 14.5594 5.50004L11 9.05579L7.43416 5.48904C7.30644 5.36132 7.15481 5.26 6.98794 5.19088C6.82106 5.12176 6.6422 5.08618 6.46158 5.08618C6.28095 5.08618 6.1021 5.12176 5.93522 5.19088C5.76834 5.26 5.61672 5.36132 5.48899 5.48904C5.36127 5.61676 5.25996 5.76839 5.19084 5.93526C5.12171 6.10214 5.08614 6.281 5.08614 6.46162C5.08614 6.64225 5.12171 6.8211 5.19084 6.98798C5.25996 7.15486 5.36127 7.30648 5.48899 7.4342L9.05574 11L5.49999 14.5585C5.36054 14.6832 5.24799 14.835 5.16923 15.0046C5.09046 15.1743 5.04714 15.3582 5.0419 15.5452C5.03667 15.7322 5.06964 15.9182 5.1388 16.092C5.20795 16.2658 5.31183 16.4237 5.44409 16.5559C5.57635 16.6882 5.73421 16.7921 5.908 16.8612C6.08179 16.9304 6.26786 16.9634 6.45483 16.9581C6.6418 16.9529 6.82574 16.9096 6.99539 16.8308C7.16504 16.752 7.31684 16.6395 7.44149 16.5L11 12.9443L14.5548 16.5C14.8128 16.758 15.1626 16.9029 15.5274 16.9029C15.8922 16.9029 16.242 16.758 16.5 16.5C16.7579 16.2421 16.9029 15.8922 16.9029 15.5275C16.9029 15.1627 16.7579 14.8128 16.5 14.5549L12.9442 11Z" fill="black"/>
</svg>
