<svg width="66" height="50" viewBox="0 0 66 50" fill="none" xmlns="http://www.w3.org/2000/svg">
<path fill-rule="evenodd" clip-rule="evenodd" d="M17.3354 15.3889C19.7445 6.52734 27.6529 0 37.1711 0C48.5792 0 57.7149 9.45285 57.7149 21.0741C57.7149 22.063 58.3268 23.1303 59.3657 23.7757C63.3705 26.2634 66 30.7448 66 35.8403C66 40.3844 63.9137 44.3853 60.6921 47.0008L60.671 47.0179C58.3097 48.886 55.3312 50 52.1414 50H16.7156C13.4419 50 10.4085 49.0583 7.83484 47.3692C3.12528 44.3458 0 38.9876 0 32.9105C0 23.5114 7.42584 15.8209 16.7156 15.8209C17.0323 15.8209 17.2788 15.597 17.3354 15.3889ZM41.7294 32.0276C38.5846 31.3877 37.2522 29.025 36.6768 27.9692C36.1095 26.928 36.4927 25.6234 37.5327 25.0554C38.5728 24.4873 39.8759 24.8709 40.4433 25.9122C40.9428 26.8287 41.4599 27.5898 42.584 27.8185C43.4872 28.0023 44.0146 27.9081 44.415 27.7523C44.8928 27.5662 45.3704 27.2266 46.1458 26.5873C47.0602 25.8331 48.4122 25.964 49.1655 26.8794C49.9188 27.7949 49.7881 29.1483 48.8737 29.9025C48.1011 30.5396 47.1553 31.294 45.97 31.7554C44.7073 32.247 43.3322 32.3537 41.7294 32.0276ZM29.3234 27.9694C28.748 29.0253 27.4157 31.388 24.2708 32.0279C22.668 32.354 21.2929 32.2472 20.0302 31.7557C18.8451 31.2942 17.8992 30.5398 17.1266 29.9027C16.2121 29.1486 16.0815 27.7951 16.8347 26.8797C17.588 25.9642 18.94 25.8334 19.8545 26.5875C20.6299 27.2269 21.1075 27.5665 21.5854 27.7525C21.9856 27.9084 22.5131 28.0025 23.4162 27.8187C24.5403 27.59 25.0575 26.829 25.5569 25.9124C26.1244 24.8712 27.4275 24.4876 28.4675 25.0556C29.5077 25.6237 29.8908 26.9282 29.3234 27.9694ZM24.7781 37.9948C23.8264 38.7012 23.6269 40.0463 24.3325 40.9991C25.0382 41.9518 26.3817 42.1515 27.3335 41.4451C28.385 40.6645 29.1616 40.1425 29.985 39.7913C30.7675 39.4575 31.6756 39.2451 32.9773 39.2451C35.4179 39.2451 37.1768 40.2802 38.6234 41.4121C39.5569 42.1424 40.905 41.977 41.6346 41.0424C42.3643 40.1079 42.1989 38.7582 41.2654 38.0279C39.468 36.6215 36.7855 34.95 32.9773 34.95C31.1547 34.95 29.6676 35.2579 28.3033 35.8398C26.9797 36.4044 25.8576 37.1935 24.7781 37.9948Z" fill="#7C7D85"/>
</svg>
