<svg width="18" height="18" viewBox="0 0 18 18" fill="none" xmlns="http://www.w3.org/2000/svg">
<path d="M9.33332 14.2499C7.07922 14.2474 5.25257 12.4207 5.25 10.1666V4.91661C5.25 4.79994 5.25757 4.68329 5.2675 4.57129C4.1965 5.03137 3.50175 6.0843 3.5 7.24994V13.0833C3.50191 14.6933 4.80662 15.998 6.41665 15.9999H9.91665C11.0823 15.9982 12.1352 15.3034 12.5953 14.2324C12.4786 14.2424 12.3666 14.2499 12.25 14.2499H9.33332Z" fill="#040707"/>
<path d="M14.6737 3.90897L13.3414 2.53289C13.1947 2.38434 13.0226 2.26323 12.8333 2.17529V4.33362H14.9683C14.8917 4.17822 14.7924 4.03508 14.6737 3.90897Z" fill="#040707"/>
<path d="M12.25 4.33303C12.25 4.65519 12.5112 4.91635 12.8333 4.91635H15.1468C15.1039 4.53759 14.9376 4.1834 14.6738 3.90835L13.3414 2.53228C13.05 2.23686 12.6633 2.05417 12.25 2.0166V4.33303Z" fill="#040707"/>
<path d="M11.0834 4.33332V2H9.33342C7.7234 2.00194 6.41869 3.30665 6.41675 4.91668V10.1667C6.41869 11.7767 7.7234 13.0814 9.33342 13.0834H12.2501C13.8601 13.0814 15.1648 11.7767 15.1668 10.1667V6.08332H12.8334C11.8669 6.08332 11.0834 5.29984 11.0834 4.33332Z" fill="#040707"/>
</svg>
