<svg width="36" height="36" viewBox="0 0 36 36" fill="none" xmlns="http://www.w3.org/2000/svg">
<path d="M11.0079 6.04102C8.25641 6.04102 6.04126 8.25616 6.04126 11.0076V13.1551C8.44296 13.1551 10.3899 15.1021 10.3899 17.5038C10.3899 19.9055 8.44296 21.8524 6.04126 21.8524V24.9918C6.04126 27.7433 8.25641 29.9585 11.0079 29.9585H24.9921C27.7436 29.9585 29.9587 27.7433 29.9587 24.9918V21.8524C27.557 21.8524 25.61 19.9055 25.61 17.5038C25.61 15.1021 27.557 13.1551 29.9587 13.1551V11.0076C29.9587 8.25616 27.7436 6.04102 24.9921 6.04102H11.0079Z" fill="#E8E9EE"/>
<path d="M20.174 9.04883C19.5735 9.04883 19.0869 9.53578 19.0869 10.1362V12.2425C19.0869 12.8428 19.5735 13.3295 20.174 13.3295C20.7744 13.3295 21.2613 12.8428 21.2613 12.2425V10.1362C21.2613 9.53578 20.7744 9.04883 20.174 9.04883ZM20.174 15.504C19.5735 15.504 19.0869 15.9907 19.0869 16.5911V19.0531C19.0869 19.6535 19.5735 20.1403 20.174 20.1403C20.7744 20.1403 21.2613 19.6535 21.2613 19.0531V16.5911C21.2613 15.9907 20.7744 15.504 20.174 15.504ZM20.174 22.3144C19.5735 22.3144 19.0869 22.8013 19.0869 23.4018V25.8636C19.0869 26.464 19.5735 26.9507 20.174 26.9507C20.7744 26.9507 21.2613 26.464 21.2613 25.8636V23.4018C21.2613 22.8013 20.7744 22.3144 20.174 22.3144Z" fill="#7C7D85"/>
</svg>
