<svg width="388" height="180" viewBox="0 0 388 180" fill="none" xmlns="http://www.w3.org/2000/svg">
<mask id="path-1-inside-1_524_1869" fill="white">
<path fill-rule="evenodd" clip-rule="evenodd" d="M82 7C85.866 7 89 3.86599 89 0H388V180H89C89 176.134 85.866 173 82 173C78.134 173 75 176.134 75 180H0V171C3.86599 171 7 167.866 7 164C7 160.134 3.86599 157 0 157V150C3.86599 150 7 146.866 7 143C7 139.134 3.86599 136 0 136V129C3.86599 129 7 125.866 7 122C7 118.134 3.86599 115 0 115V108C3.86599 108 7 104.866 7 101C7 97.134 3.86599 94 0 94V87C3.86599 87 7 83.866 7 80C7 76.134 3.86599 73 0 73V66C3.86599 66 7 62.866 7 59C7 55.134 3.86599 52 0 52V45C3.86599 45 7 41.866 7 38C7 34.134 3.86599 31 0 31V24C3.86599 24 7 20.866 7 17C7 13.134 3.86599 10 0 10V0H75C75 3.86599 78.134 7 82 7Z"/>
</mask>
<path fill-rule="evenodd" clip-rule="evenodd" d="M82 7C85.866 7 89 3.86599 89 0H388V180H89C89 176.134 85.866 173 82 173C78.134 173 75 176.134 75 180H0V171C3.86599 171 7 167.866 7 164C7 160.134 3.86599 157 0 157V150C3.86599 150 7 146.866 7 143C7 139.134 3.86599 136 0 136V129C3.86599 129 7 125.866 7 122C7 118.134 3.86599 115 0 115V108C3.86599 108 7 104.866 7 101C7 97.134 3.86599 94 0 94V87C3.86599 87 7 83.866 7 80C7 76.134 3.86599 73 0 73V66C3.86599 66 7 62.866 7 59C7 55.134 3.86599 52 0 52V45C3.86599 45 7 41.866 7 38C7 34.134 3.86599 31 0 31V24C3.86599 24 7 20.866 7 17C7 13.134 3.86599 10 0 10V0H75C75 3.86599 78.134 7 82 7Z" fill="white"/>
<path d="M89 0V-0.5H88.5V0H89ZM388 0H388.5V-0.5H388V0ZM388 180V180.5H388.5V180H388ZM89 180H88.5V180.5H89V180ZM75 180V180.5H75.5V180H75ZM0 180H-0.5V180.5H0V180ZM0 171V170.5H-0.5V171H0ZM0 157H-0.5V157.5H0V157ZM0 150V149.5H-0.5V150H0ZM0 136H-0.5V136.5H0V136ZM0 129V128.5H-0.5V129H0ZM0 115H-0.5V115.5H0V115ZM0 108V107.5H-0.5V108H0ZM0 94H-0.5V94.5H0V94ZM0 87V86.5H-0.5V87H0ZM0 73H-0.5V73.5H0V73ZM0 66V65.5H-0.5V66H0ZM0 52H-0.5V52.5H0V52ZM0 45V44.5H-0.5V45H0ZM0 31H-0.5V31.5H0V31ZM0 24V23.5H-0.5V24H0ZM0 10H-0.5V10.5H0V10ZM0 0V-0.5H-0.5V0H0ZM75 0H75.5V-0.5H75V0ZM88.5 0C88.5 3.58985 85.5898 6.5 82 6.5V7.5C86.1421 7.5 89.5 4.14214 89.5 0H88.5ZM388 -0.5H89V0.5H388V-0.5ZM388.5 180V0H387.5V180H388.5ZM89 180.5H388V179.5H89V180.5ZM82 173.5C85.5899 173.5 88.5 176.41 88.5 180H89.5C89.5 175.858 86.1421 172.5 82 172.5V173.5ZM75.5 180C75.5 176.41 78.4101 173.5 82 173.5V172.5C77.8579 172.5 74.5 175.858 74.5 180H75.5ZM0 180.5H75V179.5H0V180.5ZM-0.5 171V180H0.5V171H-0.5ZM6.5 164C6.5 167.59 3.58985 170.5 0 170.5V171.5C4.14214 171.5 7.5 168.142 7.5 164H6.5ZM0 157.5C3.58985 157.5 6.5 160.41 6.5 164H7.5C7.5 159.858 4.14214 156.5 0 156.5V157.5ZM-0.5 150V157H0.5V150H-0.5ZM6.5 143C6.5 146.59 3.58985 149.5 0 149.5V150.5C4.14214 150.5 7.5 147.142 7.5 143H6.5ZM0 136.5C3.58985 136.5 6.5 139.41 6.5 143H7.5C7.5 138.858 4.14214 135.5 0 135.5V136.5ZM-0.5 129V136H0.5V129H-0.5ZM6.5 122C6.5 125.59 3.58985 128.5 0 128.5V129.5C4.14214 129.5 7.5 126.142 7.5 122H6.5ZM0 115.5C3.58985 115.5 6.5 118.41 6.5 122H7.5C7.5 117.858 4.14214 114.5 0 114.5V115.5ZM-0.5 108V115H0.5V108H-0.5ZM6.5 101C6.5 104.59 3.58985 107.5 0 107.5V108.5C4.14214 108.5 7.5 105.142 7.5 101H6.5ZM0 94.5C3.58985 94.5 6.5 97.4102 6.5 101H7.5C7.5 96.8579 4.14214 93.5 0 93.5V94.5ZM-0.5 87V94H0.5V87H-0.5ZM6.5 80C6.5 83.5898 3.58985 86.5 0 86.5V87.5C4.14214 87.5 7.5 84.1421 7.5 80H6.5ZM0 73.5C3.58985 73.5 6.5 76.4102 6.5 80H7.5C7.5 75.8579 4.14214 72.5 0 72.5V73.5ZM-0.5 66V73H0.5V66H-0.5ZM6.5 59C6.5 62.5899 3.58985 65.5 0 65.5V66.5C4.14214 66.5 7.5 63.1421 7.5 59H6.5ZM0 52.5C3.58985 52.5 6.5 55.4101 6.5 59H7.5C7.5 54.8579 4.14214 51.5 0 51.5V52.5ZM-0.5 45V52H0.5V45H-0.5ZM6.5 38C6.5 41.5899 3.58985 44.5 0 44.5V45.5C4.14214 45.5 7.5 42.1421 7.5 38H6.5ZM0 31.5C3.58985 31.5 6.5 34.4101 6.5 38H7.5C7.5 33.8579 4.14214 30.5 0 30.5V31.5ZM-0.5 24V31H0.5V24H-0.5ZM6.5 17C6.5 20.5899 3.58985 23.5 0 23.5V24.5C4.14214 24.5 7.5 21.1421 7.5 17H6.5ZM0 10.5C3.58985 10.5 6.5 13.4101 6.5 17H7.5C7.5 12.8579 4.14214 9.5 0 9.5V10.5ZM-0.5 0V10H0.5V0H-0.5ZM75 -0.5H0V0.5H75V-0.5ZM82 6.5C78.4102 6.5 75.5 3.58985 75.5 0H74.5C74.5 4.14214 77.8579 7.5 82 7.5V6.5Z" fill="#E8E9EE" mask="url(#path-1-inside-1_524_1869)"/>
<path fill-rule="evenodd" clip-rule="evenodd" d="M82 7C85.866 7 89 3.86599 89 0H100V180H89C89 176.134 85.866 173 82 173C78.134 173 75 176.134 75 180H0V171C3.86599 171 7 167.866 7 164C7 160.134 3.86599 157 0 157V150C3.86599 150 7 146.866 7 143C7 139.134 3.86599 136 0 136V129C3.86599 129 7 125.866 7 122C7 118.134 3.86599 115 0 115V108C3.86599 108 7 104.866 7 101C7 97.134 3.86599 94 0 94V87C3.86599 87 7 83.866 7 80C7 76.134 3.86599 73 0 73V66C3.86599 66 7 62.866 7 59C7 55.134 3.86599 52 0 52V45C3.86599 45 7 41.866 7 38C7 34.134 3.86599 31 0 31V24C3.86599 24 7 20.866 7 17C7 13.134 3.86599 10 0 10V0H75C75 3.86599 78.134 7 82 7Z" fill="#040707"/>
</svg>
