<svg width="14" height="14" viewBox="0 0 14 14" fill="none" xmlns="http://www.w3.org/2000/svg">
<path d="M8.16662 14C8.0404 14 7.91759 13.9591 7.81662 13.8833L5.48328 12.1333C5.41083 12.079 5.35203 12.0085 5.31153 11.9275C5.27103 11.8465 5.24995 11.7572 5.24995 11.6667V8.38833L1.15728 3.78408C0.866618 3.45618 0.676836 3.05131 0.610745 2.61814C0.544653 2.18496 0.605065 1.74192 0.78472 1.34226C0.964374 0.942594 1.25563 0.603318 1.62347 0.365205C1.99131 0.127092 2.4201 0.000276744 2.85828 0L11.1416 0C11.5798 0.000513946 12.0084 0.12754 12.3761 0.365812C12.7438 0.604085 13.0349 0.943467 13.2144 1.34317C13.3938 1.74288 13.454 2.18591 13.3878 2.61902C13.3215 3.05213 13.1316 3.45689 12.8409 3.78467L8.74995 8.38833V13.4167C8.74995 13.5714 8.68849 13.7197 8.57909 13.8291C8.4697 13.9385 8.32132 14 8.16662 14ZM6.41662 11.375L7.58328 12.25V8.16667C7.5834 8.02384 7.63591 7.88602 7.73087 7.77933L11.9705 3.00942C12.1119 2.84963 12.2042 2.65244 12.2362 2.44151C12.2683 2.23059 12.2388 2.01489 12.1512 1.82032C12.0637 1.62576 11.9219 1.46058 11.7428 1.34463C11.5637 1.22869 11.355 1.16689 11.1416 1.16667H2.85828C2.64504 1.16699 2.43643 1.22882 2.25745 1.34474C2.07847 1.46066 1.93674 1.62575 1.84924 1.8202C1.76174 2.01466 1.73219 2.23023 1.76414 2.44106C1.79609 2.65189 1.88818 2.84903 2.02936 3.00883L6.26962 7.77933C6.36436 7.88611 6.41666 8.02392 6.41662 8.16667V11.375Z" fill="white"/>
</svg>
