<svg width="24" height="24" viewBox="0 0 24 24" fill="none" xmlns="http://www.w3.org/2000/svg">
<path d="M16.5815 3C15.6435 3.01408 14.726 3.26678 13.9215 3.73257C13.1171 4.19836 12.4543 4.86075 12 5.65285C11.5457 4.86075 10.8829 4.19836 10.0785 3.73257C9.27405 3.26678 8.35651 3.01408 7.41852 3C5.92324 3.0627 4.51444 3.69397 3.49991 4.75589C2.48539 5.81782 1.9476 7.22408 2.00403 8.66746C2.00403 14.1138 11.1304 20.4043 11.5185 20.6712L12 21L12.4815 20.6712C12.8696 20.4059 21.996 14.1138 21.996 8.66746C22.0524 7.22408 21.5146 5.81782 20.5001 4.75589C19.4856 3.69397 18.0768 3.0627 16.5815 3Z" fill="#BDC1CA"/>
</svg>
