<svg width="22" height="22" viewBox="0 0 22 22" fill="none" xmlns="http://www.w3.org/2000/svg">
<path d="M14.6652 4C13.9148 4.01126 13.1808 4.21342 12.5372 4.58605C11.8937 4.95869 11.3634 5.4886 11 6.12228C10.6366 5.4886 10.1063 4.95869 9.46278 4.58605C8.81924 4.21342 8.08521 4.01126 7.33481 4C6.13859 4.05016 5.01155 4.55517 4.19993 5.40471C3.38831 6.25426 2.95808 7.37927 3.00323 8.53396C3.00323 12.8911 10.3043 17.9235 10.6148 18.137L11 18.4L11.3852 18.137C11.6957 17.9247 18.9968 12.8911 18.9968 8.53396C19.0419 7.37927 18.6117 6.25426 17.8001 5.40471C16.9884 4.55517 15.8614 4.05016 14.6652 4Z" fill="#040707"/>
</svg>
