<svg width="22" height="22" viewBox="0 0 22 22" fill="none" xmlns="http://www.w3.org/2000/svg">
<path d="M7.66662 11C7.66675 10.3469 7.85996 9.70834 8.22195 9.16469L4.89662 5.83936C3.67224 7.28012 3 9.10927 3 11C3 12.8908 3.67224 14.7199 4.89662 16.1607L8.22195 12.8353C7.85996 12.2917 7.66675 11.6532 7.66662 11Z" fill="#040707"/>
<path d="M17.1033 5.83936L13.778 9.16469C14.14 9.70829 14.3333 10.3469 14.3333 11C14.3333 11.6532 14.14 12.2917 13.778 12.8353L17.1033 16.1607C18.3277 14.7199 18.9999 12.8908 18.9999 11C18.9999 9.10927 18.3277 7.28012 17.1033 5.83936Z" fill="#040707"/>
<path d="M11 14.3332C10.3469 14.333 9.70834 14.1398 9.16469 13.7778L5.83936 17.1032C7.28012 18.3275 9.10927 18.9998 11 18.9998C12.8908 18.9998 14.7199 18.3275 16.1607 17.1032L12.8354 13.7778C12.2917 14.1398 11.6532 14.333 11 14.3332Z" fill="#040707"/>
<path d="M11 7.66662C11.6532 7.66675 12.2917 7.85996 12.8353 8.22195L16.1607 4.89662C14.7199 3.67224 12.8908 3 11 3C9.10927 3 7.28012 3.67224 5.83936 4.89662L9.16469 8.22195C9.70834 7.85996 10.3469 7.66675 11 7.66662Z" fill="#040707"/>
</svg>
