<svg width="22" height="22" viewBox="0 0 22 22" fill="none" xmlns="http://www.w3.org/2000/svg">
<path d="M9.74268 13.3633C9.37398 13.3633 9.06435 13.6728 9.18912 14.0178C9.45689 14.7588 10.1665 15.2883 10.9997 15.2883C11.833 15.2883 12.5427 14.7588 12.8105 14.0178C12.9352 13.6728 12.6257 13.3633 12.2569 13.3633H9.74268Z" fill="#040707"/>
<path d="M10.9999 3.69189C8.129 3.69189 5.70901 5.65234 5.23693 8.2636H4.8174C4.19394 8.2636 3.69202 8.76553 3.69202 9.38901V12.6115C3.69202 13.2349 4.19394 13.7369 4.8174 13.7369H5.3569C5.98036 13.7369 6.48228 13.2349 6.48228 12.6115V9.19623C6.48228 6.89697 8.46246 5.02056 11.0004 5.02056C13.5385 5.02056 15.5186 6.89697 15.5186 9.19623V12.8042C15.5186 15.1035 13.5385 16.9792 11.0004 16.9792C10.6335 16.9792 10.3361 17.2768 10.3361 17.6437C10.3362 18.0106 10.6335 18.308 11.0004 18.3081C13.8714 18.3081 16.2913 16.348 16.7634 13.7369H17.1828C17.8063 13.7369 18.3082 13.2349 18.3082 12.6115V9.38901C18.3082 8.76553 17.8063 8.2636 17.1828 8.2636H16.7634C16.2913 5.65234 13.8714 3.69189 11.0004 3.69189H10.9999Z" fill="#040707"/>
</svg>
