<svg width="22" height="22" viewBox="0 0 22 22" fill="none" xmlns="http://www.w3.org/2000/svg">
<path fill-rule="evenodd" clip-rule="evenodd" d="M8.12983 2.58524C9.03978 2.19887 10.0151 2 11 2C11.9849 2 12.9602 2.19887 13.8702 2.58524C14.7801 2.97162 15.6069 3.53793 16.3034 4.25185C16.9998 4.96578 17.5522 5.81332 17.9291 6.7461C18.306 7.67888 18.5 8.67862 18.5 9.68824C18.4994 11.6456 17.7704 13.529 16.4618 14.9545L12.8465 19.1167C11.8235 20.2944 10.1765 20.2944 9.15353 19.1167L5.53694 14.9532C4.22907 13.5279 3.50061 11.645 3.5 9.68824C3.49998 8.67862 3.69395 7.67888 4.07085 6.7461C4.44775 5.81332 5.00019 4.96578 5.69663 4.25185C6.39307 3.53793 7.21987 2.97162 8.12983 2.58524ZM12.7326 7.91242C12.2731 7.44139 11.6498 7.17676 11 7.17676C10.3501 7.17676 9.72689 7.44139 9.26738 7.91242C8.80786 8.38346 8.54971 9.02231 8.54971 9.68846C8.54971 10.3546 8.80786 10.9935 9.26738 11.4645C9.72689 11.9355 10.3501 12.2002 11 12.2002C11.6498 12.2002 12.2731 11.9355 12.7326 11.4645C13.1921 10.9935 13.4502 10.3546 13.4502 9.68846C13.4502 9.02231 13.1921 8.38346 12.7326 7.91242Z" fill="#040707"/>
</svg>
