<svg width="22" height="22" viewBox="0 0 22 22" fill="none" xmlns="http://www.w3.org/2000/svg">
<path d="M7.95945 6.04877C7.45492 6.61114 7.48233 7.43601 7.95945 7.92829L9.70319 9.6717H4.94574C4.21195 9.67174 3.61697 10.2666 3.61694 11.0004C3.61687 11.7342 4.21188 12.3292 4.94574 12.3292H9.70182L7.95945 14.0717C7.44015 14.5907 7.44015 15.4325 7.95945 15.9514C8.47842 16.4706 9.31987 16.4706 9.83882 15.9514L13.1634 12.6269C13.6058 12.1844 13.8271 11.5922 13.8271 11C13.8271 10.4078 13.6059 9.81563 13.1634 9.37318L9.83882 6.04877C9.27616 5.53843 8.44341 5.57922 7.95945 6.04877Z" fill="#040707"/>
<path d="M14.7121 3.69189C13.6192 3.69189 12.6649 4.26389 12.1308 5.12596C11.7823 5.68845 12.0962 6.63103 12.5673 7.10196L14.0888 8.62289C14.7414 9.27543 15.0621 10.1445 15.0621 11.0001C15.0621 11.8556 14.741 12.7244 14.0888 13.3765L12.5672 14.8976C12.0961 15.3686 11.782 16.3113 12.1305 16.8738C12.6646 17.7361 13.619 18.3081 14.7121 18.3081H15.3479C17.0294 18.3081 18.3831 16.9543 18.3831 15.2729V6.72706C18.3831 5.0456 17.0294 3.69189 15.3479 3.69189H14.7121Z" fill="#040707"/>
</svg>
