<svg width="32" height="32" viewBox="0 0 32 32" fill="none" xmlns="http://www.w3.org/2000/svg">
<path d="M19.5427 16.8248C18.5813 17.6448 17.3481 18.1591 15.999 18.1591C14.6879 18.1591 13.3511 17.569 12.4565 16.8251C11.495 17.645 10.262 18.1593 8.91294 18.1594C8.11436 18.138 7.32698 17.9821 6.64856 17.6797V22.2153C6.64856 24.6609 8.61754 26.6299 11.0632 26.6299H20.9367C23.3824 26.6299 25.3514 24.6609 25.3514 22.2153V17.672C24.5475 17.9975 23.8677 18.1433 23.0843 18.1591C21.7358 18.1586 20.5037 17.6444 19.5427 16.8248Z" fill="#E8E9EE"/>
<path d="M9.78483 5.37028C7.33915 5.37028 5.37018 7.339 5.37018 9.78469V12.6838C5.37018 13.784 5.86668 14.7635 6.64855 15.4123C7.10364 15.813 7.79217 16.1381 8.58137 16.211C8.6972 16.2196 8.8133 16.2259 8.91321 16.2265C10.1738 16.2264 11.2768 15.5745 11.9044 14.5881C12.4786 13.5956 12.5711 13.8995 13.0085 14.5881C13.6362 15.5746 14.7382 16.2265 15.999 16.2265C17.2597 16.2265 18.3627 15.5745 18.9904 14.5881C19.5785 13.6641 19.5065 13.6641 20.0945 14.5881C20.7222 15.5746 21.8252 16.2265 23.086 16.2265C23.2008 16.227 23.3089 16.2186 23.4191 16.2108C24.2078 16.1375 24.8958 15.8123 25.3506 15.4118L25.3515 15.4127V15.4118C26.1334 14.763 26.6299 13.7835 26.6299 12.6835V9.78441C26.6299 7.33872 24.6599 5.37 22.2142 5.37L9.78483 5.37028Z" fill="#7C7D85"/>
</svg>
