<svg width="28" height="28" viewBox="0 0 28 28" fill="none" xmlns="http://www.w3.org/2000/svg">
<path d="M11.7392 19.8396C11.0761 19.8396 10.5195 20.3961 10.7438 21.0165C11.2254 22.3489 12.5015 23.3012 14 23.3011C15.4985 23.3012 16.7746 22.3489 17.2562 21.0165C17.4805 20.3961 16.9239 19.8396 16.2608 19.8396H11.7392Z" fill="#040707"/>
<path d="M14 4.69873C13.3557 4.69842 12.7077 4.78579 12.0861 4.96047C9.34978 5.68359 7.2565 8.22381 6.99891 11.0247C6.96792 11.3615 6.73866 11.7847 6.49117 12.0148C5.7991 12.6583 5.35032 13.5616 5.27448 14.5061C5.11965 16.5116 6.82699 18.4006 8.82778 18.499C10.5516 18.5123 12.2758 18.5127 14 18.511C15.7242 18.5127 17.4484 18.5123 19.1722 18.499C21.173 18.4006 22.8803 16.5116 22.7255 14.5061C22.6497 13.5616 22.2009 12.6583 21.5088 12.0148C21.2613 11.7847 21.032 11.3615 21.0011 11.0247C20.7435 8.22381 18.6502 5.68359 15.9138 4.96047C15.2923 4.78579 14.6443 4.69849 14 4.69873Z" fill="#040707"/>
</svg>
