<svg width="15" height="14" viewBox="0 0 15 14" fill="none" xmlns="http://www.w3.org/2000/svg">
<g clip-path="url(#clip0_320_5175)">
<path d="M14.75 7.00034C14.75 6.05184 14.3335 5.15701 13.6271 4.59468C13.7087 3.64851 13.3704 2.72159 12.6996 2.05018C12.0287 1.37993 11.1041 1.04043 10.2046 1.14309C9.02981 -0.347906 6.49173 -0.375906 5.34431 1.12268C3.4584 0.898678 1.64481 2.67434 1.89331 4.54568C0.402315 5.72051 0.373732 8.25859 1.8729 9.4066C1.79123 10.3528 2.12956 11.2797 2.8004 11.9511C3.47123 12.6213 4.39698 12.9608 5.29531 12.8582C6.47015 14.3492 9.00823 14.3772 10.1556 12.8786C11.1006 12.9597 12.0281 12.6225 12.6996 11.9511C13.3698 11.2803 13.7081 10.3528 13.6066 9.45618C14.3335 8.84484 14.75 7.95001 14.75 7.00151V7.00034ZM5.41665 5.25034C5.42015 4.48734 6.57981 4.48734 6.58331 5.25034C6.57981 6.01334 5.42015 6.01334 5.41665 5.25034ZM7.06865 9.07409C6.88898 9.34418 6.5244 9.41301 6.25956 9.23568C5.99123 9.05718 5.9189 8.69493 6.09798 8.42659L8.43131 4.92659C8.60982 4.65884 8.97148 4.58534 9.2404 4.76501C9.50873 4.94351 9.58106 5.30576 9.40198 5.57409L7.06865 9.07409ZM9.49998 9.33368C8.73698 9.33018 8.73698 8.17051 9.49998 8.16701C10.263 8.17051 10.263 9.33018 9.49998 9.33368Z" fill="#00CA14"/>
</g>
<defs>
<clipPath id="clip0_320_5175">
<rect width="14" height="14" fill="white" transform="translate(0.75)"/>
</clipPath>
</defs>
</svg>
