<svg width="14" height="14" viewBox="0 0 14 14" fill="none" xmlns="http://www.w3.org/2000/svg">
<path d="M8.04917 4.06936L2.53615 9.58239C2.41658 9.70197 2.3494 9.86415 2.3494 10.0333V11.3864C2.34941 11.5323 2.46765 11.6506 2.61352 11.6506H3.9667C4.13581 11.6506 4.29799 11.5834 4.41757 11.4638L9.9306 5.95079C9.99283 5.88856 10.0278 5.80416 10.0278 5.71615C10.0278 5.62815 9.99283 5.54375 9.9306 5.48152L8.51844 4.06936C8.45621 4.00713 8.37181 3.97217 8.28381 3.97217C8.1958 3.97217 8.1114 4.00713 8.04917 4.06936Z" fill="white"/>
<path d="M10.9043 2.64609C10.509 2.25078 9.86802 2.25078 9.47269 2.64609L9.20626 2.91251C9.16749 2.95129 9.13673 2.99732 9.11574 3.04799C9.09476 3.09865 9.08395 3.15295 9.08395 3.20779C9.08395 3.26263 9.09476 3.31694 9.11574 3.3676C9.13673 3.41826 9.16749 3.4643 9.20626 3.50308L10.4971 4.79394C10.5359 4.83272 10.5819 4.86347 10.6326 4.88446C10.6833 4.90545 10.7376 4.91625 10.7924 4.91625C10.8472 4.91625 10.9015 4.90545 10.9522 4.88446C11.0029 4.86347 11.0489 4.83272 11.0877 4.79394L11.3541 4.52751C11.7494 4.13218 11.7494 3.49124 11.3541 3.0959L10.9043 2.64609Z" fill="white"/>
</svg>
