<svg width="22" height="22" viewBox="0 0 22 22" fill="none" xmlns="http://www.w3.org/2000/svg">
<path d="M11 4.5833C12.2656 4.5833 13.2916 3.5573 13.2916 2.29165C13.2916 1.02601 12.2656 0 11 0C9.73435 0 8.70834 1.02601 8.70834 2.29165C8.70834 3.5573 9.73435 4.5833 11 4.5833Z" fill="black"/>
<path d="M11 13.2916C12.2656 13.2916 13.2916 12.2655 13.2916 10.9999C13.2916 9.73426 12.2656 8.70825 11 8.70825C9.73435 8.70825 8.70834 9.73426 8.70834 10.9999C8.70834 12.2655 9.73435 13.2916 11 13.2916Z" fill="black"/>
<path d="M11 22.0001C12.2656 22.0001 13.2916 20.974 13.2916 19.7084C13.2916 18.4428 12.2656 17.4167 11 17.4167C9.73435 17.4167 8.70834 18.4428 8.70834 19.7084C8.70834 20.974 9.73435 22.0001 11 22.0001Z" fill="black"/>
</svg>
