<svg width="22" height="22" viewBox="0 0 22 22" fill="none" xmlns="http://www.w3.org/2000/svg">
<path d="M11 4.5833C12.2656 4.5833 13.2916 3.5573 13.2916 2.29165C13.2916 1.02601 12.2656 0 11 0C9.73435 0 8.70834 1.02601 8.70834 2.29165C8.70834 3.5573 9.73435 4.5833 11 4.5833Z" fill="black"/>
<path d="M11 13.2913C12.2656 13.2913 13.2916 12.2653 13.2916 10.9997C13.2916 9.73402 12.2656 8.70801 11 8.70801C9.73435 8.70801 8.70834 9.73402 8.70834 10.9997C8.70834 12.2653 9.73435 13.2913 11 13.2913Z" fill="black"/>
<path d="M11 22.0003C12.2656 22.0003 13.2916 20.9743 13.2916 19.7086C13.2916 18.443 12.2656 17.417 11 17.417C9.73435 17.417 8.70834 18.443 8.70834 19.7086C8.70834 20.9743 9.73435 22.0003 11 22.0003Z" fill="black"/>
</svg>
