<svg width="24" height="24" viewBox="0 0 24 24" fill="none" xmlns="http://www.w3.org/2000/svg">
<path d="M16.5814 3C15.6434 3.01408 14.7259 3.26678 13.9215 3.73257C13.117 4.19836 12.4542 4.86075 11.9999 5.65285C11.5457 4.86075 10.8828 4.19836 10.0784 3.73257C9.27399 3.26678 8.35645 3.01408 7.41845 3C5.92317 3.0627 4.51438 3.69397 3.49985 4.75589C2.48533 5.81782 1.94754 7.22408 2.00397 8.66746C2.00397 14.1138 11.1303 20.4043 11.5185 20.6712L11.9999 21L12.4814 20.6712C12.8696 20.4059 21.9959 14.1138 21.9959 8.66746C22.0523 7.22408 21.5146 5.81782 20.5 4.75589C19.4855 3.69397 18.0767 3.0627 16.5814 3Z" fill="#F30000"/>
</svg>
