<svg width="428" height="926" viewBox="0 0 428 926" fill="none" xmlns="http://www.w3.org/2000/svg">
<g clip-path="url(#clip0_478_1486)">
<rect width="428" height="926" fill="#040707"/>
<path d="M541.464 27.8056C511.087 74.2141 478.392 114.112 434.986 149.001C391.121 184.549 336.546 215.088 272.275 223.7C208.005 232.313 134.039 218.998 120.101 170.129C105.503 120.801 151.034 36.4781 155.493 -28.9552C160.611 -93.9293 123.997 -140.473 113.352 -203.204C103.266 -266.036 119.609 -345.714 164.278 -360.63C208.948 -375.547 281.385 -325.601 342.448 -297.282C403.512 -268.963 452.742 -261.611 498.72 -236.941C544.239 -211.612 586.047 -168.306 592.972 -119.914C599.897 -71.5219 571.84 -18.603 541.464 27.8056Z" fill="#3E3E41"/>
<path d="M261.306 610.779C301.641 648.853 335.158 688.063 361.858 736.935C389.126 786.374 409.577 845.474 406.736 910.257C403.896 975.04 377.764 1045.51 327.204 1050.62C276.077 1056.3 201.089 996.634 137.464 980.723C74.4063 964.243 22.1424 992.088 -41.4831 991.52C-105.109 990.383 -180.664 960.265 -187.481 913.667C-194.298 867.069 -132.377 804.559 -93.747 749.437C-55.1172 694.314 -39.2108 647.148 -6.82993 606.233C26.119 565.885 76.1106 532.357 124.966 534.062C173.821 535.767 220.972 572.705 261.306 610.779Z" fill="#3E3E41"/>
</g>
<defs>
<clipPath id="clip0_478_1486">
<rect width="428" height="926" fill="white"/>
</clipPath>
</defs>
</svg>
