<svg width="28" height="28" viewBox="0 0 28 28" fill="none" xmlns="http://www.w3.org/2000/svg">
<path d="M14.0041 4.69873C8.88486 4.69869 4.6987 8.88573 4.69873 14.005C4.69873 19.1238 8.88515 23.3097 14.0041 23.3097C16.1111 23.3096 18.0592 22.5991 19.6232 21.4076C19.6397 21.3946 19.6565 21.3821 19.6736 21.3702C20.5005 20.7995 21.3706 19.6731 21.3706 19.6731C22.585 18.1008 23.3097 16.1333 23.3097 14.0041C23.3094 8.8853 19.123 4.69881 14.0041 4.69873ZM14.0041 8.0826C17.2946 8.08265 19.9258 10.7137 19.9258 14.0041C19.9258 17.4058 17.6369 19.9258 14.0041 19.9258C10.7136 19.9258 8.08262 17.2954 8.08262 14.005V14.0048V14.0046V14.0045C8.08262 10.4926 10.8536 8.08276 14.0041 8.08276V8.0826Z" fill="#BDC1CA"/>
<path d="M21.3706 19.6731C21.3706 19.6731 20.5004 20.7994 19.6736 21.3702C19.6749 21.817 19.8529 22.2451 20.1687 22.5612L21.4699 23.863C22.1306 24.5235 23.2015 24.5235 23.8622 23.863C24.5232 23.2022 24.5232 22.1306 23.8622 21.4699L22.5612 20.1686C22.2453 19.8528 21.8174 19.6746 21.3706 19.6731ZM19.6736 21.3702C19.6565 21.382 19.6397 21.3946 19.6232 21.4075C19.6399 21.3949 19.6571 21.383 19.6736 21.3702Z" fill="#E8E9EE"/>
</svg>
