<svg width="17" height="17" viewBox="0 0 17 17" fill="none" xmlns="http://www.w3.org/2000/svg">
<path d="M8.00348 0.0275879C3.61558 0.027552 0.0274392 3.61644 0.0274658 8.00436C0.0274658 12.392 3.61583 15.9799 8.00348 15.9798C9.80951 15.9798 11.4793 15.3708 12.8199 14.3495C12.834 14.3384 12.8484 14.3276 12.8631 14.3175C13.5718 13.8282 14.3177 12.8628 14.3177 12.8628C15.3586 11.5151 15.9797 9.82866 15.9797 8.0036C15.9794 3.61608 12.3912 0.027653 8.00348 0.0275879Z" fill="#040707"/>
<path d="M14.3177 12.8628C14.3177 12.8628 13.5718 13.8282 12.8631 14.3175C12.8642 14.7004 13.0168 15.0674 13.2875 15.3383L14.4028 16.4542C14.9691 17.0203 15.887 17.0203 16.4533 16.4542C17.02 15.8878 17.02 14.9693 16.4533 14.4029L15.3382 13.2876C15.0675 13.0168 14.7006 12.8641 14.3177 12.8628ZM12.8631 14.3175C12.8484 14.3276 12.8341 14.3384 12.8199 14.3495C12.8342 14.3386 12.849 14.3284 12.8631 14.3175Z" fill="#040707"/>
</svg>
