<svg width="22" height="22" viewBox="0 0 22 22" fill="none" xmlns="http://www.w3.org/2000/svg">
<path d="M10.5001 3C9.55066 2.99999 8.60115 3.52792 6.75007 4.58367C3.0478 6.69523 3 6.77692 3 11C3 15.2231 3.04781 15.3048 6.75005 17.4163C10.4523 19.5279 10.5477 19.5279 14.25 17.4163C17.9522 15.3048 18 15.2231 18 11C18 6.77692 17.9522 6.69523 14.2499 4.58369C12.3988 3.52791 11.4495 2.99999 10.5001 3Z" fill="#040707"/>
<path d="M10.5 7.79443C11.3605 7.79447 12.1858 8.13218 12.7943 8.73328C13.4027 9.33438 13.7446 10.1496 13.7446 10.9997C13.7446 11.8498 13.4028 12.6651 12.7943 13.2663C12.1858 13.8674 11.3605 14.2051 10.5 14.2051C10.0738 14.2052 9.65189 14.1223 9.2582 13.9612C8.86452 13.8001 8.50681 13.564 8.2055 13.2663C7.90419 12.9687 7.66517 12.6153 7.5021 12.2264C7.33904 11.8375 7.25511 11.4206 7.25513 10.9997C7.25514 10.5788 7.33908 10.1619 7.50215 9.77306C7.66523 9.38417 7.90425 9.03082 8.20556 8.73318C8.50688 8.43555 8.86459 8.19945 9.25827 8.03838C9.65195 7.87731 10.0739 7.79442 10.5 7.79443Z" fill="white"/>
</svg>
