<svg width="22" height="22" viewBox="0 0 22 22" fill="none" xmlns="http://www.w3.org/2000/svg">
<path d="M11 3.69189C10.1433 3.69189 9.2864 4.17415 7.61595 5.13859C4.27495 7.06752 4.23181 7.14215 4.23181 11C4.23181 14.8578 4.27496 14.9324 7.61593 16.8614C10.9569 18.7903 11.043 18.7903 14.384 16.8614C17.725 14.9325 17.7681 14.8578 17.7681 11C17.7681 7.14215 17.725 7.06753 14.384 5.13861C12.7135 4.17415 11.8568 3.69188 11 3.69189Z" fill="#040707"/>
<path d="M11 8.07178C11.7766 8.07181 12.5213 8.38031 13.0704 8.92942C13.6195 9.47853 13.928 10.2233 13.928 10.9998C13.928 11.7764 13.6196 12.5212 13.0704 13.0703C12.5213 13.6195 11.7766 13.928 11 13.928C10.6154 13.928 10.2347 13.8523 9.87939 13.7052C9.52412 13.558 9.20132 13.3423 8.92941 13.0704C8.6575 12.7985 8.44181 12.4757 8.29465 12.1204C8.1475 11.7651 8.07177 11.3844 8.07178 10.9998C8.07179 10.6153 8.14753 10.2345 8.2947 9.87927C8.44186 9.52402 8.65756 9.20123 8.92947 8.92933C9.20138 8.65744 9.52419 8.44177 9.87945 8.29463C10.2347 8.14749 10.6155 8.07176 11 8.07178Z" fill="white"/>
</svg>
