<svg width="22" height="22" viewBox="0 0 22 22" fill="none" xmlns="http://www.w3.org/2000/svg">
<path d="M17.0359 3.69227C16.8462 3.6877 16.6578 3.72461 16.4838 3.80041L4.36818 9.07941C4.15248 9.17338 3.97164 9.33255 3.85105 9.53457C3.73046 9.73659 3.67618 9.97131 3.69583 10.2058C3.71548 10.4402 3.80807 10.6626 3.96061 10.8418C4.11315 11.0209 4.31797 11.1477 4.5463 11.2045L8.78341 12.2578C9.01526 12.3154 9.22703 12.4351 9.39596 12.6041L17.9263 4.07377C17.9263 4.07375 17.9263 4.07379 17.9263 4.07377C17.6895 3.837 17.3707 3.70035 17.0359 3.69227Z" fill="#040707"/>
<path d="M17.9263 4.07373L9.396 12.604C9.56494 12.773 9.68466 12.9847 9.74231 13.2166L10.7956 17.4537C10.8524 17.682 10.9792 17.8868 11.1583 18.0393C11.3374 18.1918 11.5598 18.2844 11.7943 18.3041C12.0287 18.3237 12.2634 18.2694 12.4654 18.1489C12.6674 18.0283 12.8266 17.8475 12.9206 17.6318L18.1996 5.51619C18.3042 5.27612 18.3341 5.01011 18.2853 4.75283C18.2366 4.49554 18.1115 4.2589 17.9263 4.07373Z" fill="#040707"/>
</svg>
