<svg width="14" height="14" viewBox="0 0 14 14" fill="none" xmlns="http://www.w3.org/2000/svg">
<g clip-path="url(#clip0_271_2549)">
<path d="M7.33016 14C3.46417 13.9989 0.330992 10.8641 0.332032 6.99813C0.333071 3.13217 3.46792 -0.0010388 7.3339 2.58362e-07C9.97418 0.000711195 12.3894 1.48695 13.58 3.84357C13.7904 4.27861 13.6083 4.80185 13.1732 5.01224C12.7494 5.21723 12.2393 5.05008 12.019 4.63396C10.7124 2.04558 7.55487 1.00647 4.96646 2.31306C2.37805 3.61965 1.33894 6.77716 2.64553 9.36557C3.95212 11.954 7.10963 12.9931 9.69804 11.6865C10.6955 11.183 11.5064 10.3744 12.0126 9.37823C12.2318 8.94749 12.7587 8.77604 13.1894 8.99528C13.6202 9.21453 13.7916 9.74141 13.5724 10.1722C12.3826 12.5255 9.96721 14.0066 7.33016 14Z" fill="#F3A100"/>
</g>
<defs>
<clipPath id="clip0_271_2549">
<rect width="14" height="14" fill="white"/>
</clipPath>
</defs>
</svg>
