<svg width="371" height="364" viewBox="0 0 371 364" fill="none" xmlns="http://www.w3.org/2000/svg">
<path d="M119.672 232.85C121.171 237.724 121.519 247.111 121.04 250.777C121.04 250.777 128.291 239.942 132.6 236.828C137.615 233.204 150.531 234.88 150.531 234.88C150.531 234.88 138.859 229.161 136.641 223.693C134.736 218.993 134.052 207.698 134.052 207.698C132.467 210.742 127.601 216.823 123.712 219.716C119.161 223.102 107.52 221.648 107.52 221.648C107.52 221.648 117.918 227.144 119.672 232.85Z" fill="white"/>
<path d="M259.259 275.836C259.858 277.785 259.999 281.539 259.806 283.006C259.806 283.006 262.707 278.672 264.43 277.426C266.435 275.976 271.602 276.648 271.602 276.648C271.602 276.648 266.932 274.361 266.046 272.173C265.284 270.293 265.01 265.775 265.01 265.775C264.378 266.992 262.43 269.425 260.875 270.583C259.055 271.938 254.397 271.356 254.397 271.356C254.397 271.356 258.555 273.554 259.259 275.836Z" fill="white"/>
<path d="M209.023 332.572C209.562 334.503 209.637 338.237 209.431 339.7C209.431 339.7 212.252 335.341 213.906 334.075C215.833 332.6 220.727 333.189 220.727 333.189C220.727 333.189 216.33 330.985 215.522 328.822C214.829 326.963 214.64 322.47 214.64 322.47C214.02 323.691 212.133 326.143 210.639 327.319C208.89 328.696 204.478 328.19 204.478 328.19C204.478 328.19 208.391 330.313 209.023 332.572Z" fill="#686464"/>
<path d="M325.381 175.443C325.747 176.635 325.833 178.93 325.716 179.825C325.716 179.825 327.489 177.176 328.544 176.416C329.769 175.53 332.926 175.941 332.926 175.941C332.926 175.941 330.073 174.542 329.531 173.206C329.066 172.058 328.898 169.296 328.898 169.296C328.511 170.039 327.322 171.526 326.37 172.234C325.257 173.062 322.412 172.706 322.412 172.706C322.412 172.706 324.954 174.049 325.383 175.443L325.381 175.443Z" fill="#686464"/>
<path d="M189.297 294.7C189.664 295.892 189.749 298.186 189.633 299.082C189.633 299.082 191.405 296.433 192.46 295.673C193.685 294.787 196.842 295.197 196.842 295.197C196.842 295.197 193.989 293.798 193.447 292.463C192.983 291.314 192.815 288.552 192.815 288.552C192.427 289.295 191.238 290.783 190.287 291.491C189.174 292.319 186.328 291.963 186.328 291.963C186.328 291.963 188.87 293.306 189.299 294.7L189.297 294.7Z" fill="#686464"/>
<path d="M92.5376 105.9C92.9045 107.093 92.9896 109.387 92.8732 110.283C92.8732 110.283 94.6459 107.634 95.6983 106.873C96.9234 105.987 100.08 106.398 100.08 106.398C100.08 106.398 97.2276 104.999 96.6857 103.663C96.2208 102.515 96.0532 99.7526 96.0532 99.7526C95.6654 100.496 94.4766 101.983 93.5251 102.691C92.412 103.52 89.5667 103.163 89.5667 103.163C89.5667 103.163 92.1085 104.506 92.5376 105.9Z" fill="#686464"/>
<path d="M54.3601 123.356C55.0917 125.739 55.2632 130.328 55.0299 132.121C55.0299 132.121 58.5766 126.823 60.6816 125.301C63.133 123.53 69.4475 124.349 69.4475 124.349C69.4475 124.349 63.7416 121.552 62.657 118.88C61.7245 116.583 61.3906 111.06 61.3906 111.06C60.6147 112.548 58.2349 115.522 56.3354 116.935C54.1109 118.592 48.4201 117.88 48.4201 117.88C48.4201 117.88 53.503 120.568 54.3601 123.356Z" fill="#686464"/>
<path d="M191.911 40.2175C192.217 41.3914 192.237 43.6655 192.107 44.5571C192.107 44.5571 193.8 41.8833 194.787 41.1021C195.933 40.1922 198.817 40.5187 198.817 40.5187C198.817 40.5187 196.237 39.2035 195.774 37.8925C195.377 36.7648 195.294 34.0288 195.294 34.0288C194.92 34.7758 193.792 36.2819 192.901 37.0085C191.859 37.8592 189.259 37.5782 189.259 37.5782C189.259 37.5782 191.556 38.8455 191.914 40.2182L191.911 40.2175Z" fill="#686464"/>
<path d="M263.74 337.761C261.827 338.777 261.096 341.153 262.107 343.068C263.118 344.984 265.488 345.713 267.401 344.697C269.314 343.681 270.045 341.305 269.034 339.389C268.023 337.474 265.653 336.745 263.74 337.761Z" fill="#F0D7A7"/>
<path d="M354.662 129.093C353.078 128.606 351.334 129.709 350.765 131.556C350.197 133.404 351.02 135.297 352.603 135.784C354.187 136.271 355.931 135.168 356.5 133.321C357.068 131.473 356.245 129.581 354.662 129.093Z" fill="#F0D7A7"/>
<path d="M49.737 271.737C47.8894 271.169 45.931 272.206 45.3626 274.053C44.7942 275.901 45.8311 277.859 47.6786 278.428C49.5262 278.996 51.4847 277.959 52.0531 276.112C52.6215 274.264 51.5845 272.306 49.737 271.737Z" fill="#F0D7A7"/>
<path d="M239.517 71.8016C238.6 73.368 239.122 75.381 240.684 76.2977C242.246 77.2144 244.255 76.6878 245.172 75.1214C246.089 73.555 245.567 71.542 244.005 70.6253C242.443 69.7086 240.434 70.2352 239.517 71.8016Z" fill="#F0D7A7"/>
</svg>
