<svg width="22" height="22" viewBox="0 0 22 22" fill="none" xmlns="http://www.w3.org/2000/svg">
<path d="M6.72688 3.69189C5.04542 3.69189 3.69189 5.04551 3.69189 6.72686V17.9108C3.69189 18.1611 3.99437 18.2864 4.17134 18.1094L4.43021 17.8506C4.69507 17.5857 5.12459 17.5857 5.38947 17.8506L5.64834 18.1094C5.91319 18.3743 6.34257 18.3743 6.60739 18.1094L6.86627 17.8506C7.13111 17.5857 7.56063 17.5857 7.82551 17.8506L8.08438 18.1094C8.34924 18.3743 8.77866 18.3743 9.04348 18.1094L9.30232 17.8506C9.56717 17.5857 9.99669 17.5857 10.2616 17.8506L10.5204 18.1094C10.7853 18.3743 11.2147 18.3743 11.4795 18.1094L11.7384 17.8506C12.0032 17.5857 12.4326 17.5857 12.6975 17.8506L12.9563 18.1094C13.2212 18.3743 13.6507 18.3743 13.9156 18.1094L14.1744 17.8506C14.4393 17.5857 14.8687 17.5857 15.1335 17.8506L15.3924 18.1094C15.6572 18.3743 16.0866 18.3743 16.3514 18.1094L16.6105 17.8506C16.8753 17.5857 17.3047 17.5857 17.5696 17.8506L17.8284 18.1094C18.0054 18.2864 18.3081 18.1611 18.3081 17.9108V6.72686C18.3081 5.04551 16.9543 3.69189 15.2729 3.69189H6.72688Z" fill="#040707"/>
<path d="M7.85313 7.78271C7.67695 7.78274 7.508 7.85274 7.38342 7.97731C7.25885 8.10189 7.18885 8.27084 7.18884 8.44701C7.18887 8.62317 7.25887 8.79211 7.38344 8.91667C7.50801 9.04123 7.67696 9.11122 7.85313 9.11124H14.1466C14.3228 9.11124 14.4918 9.04126 14.6164 8.91669C14.741 8.79213 14.811 8.62318 14.811 8.44701C14.811 8.27083 14.741 8.10187 14.6164 7.97729C14.4918 7.85271 14.3228 7.78272 14.1466 7.78271H7.85313ZM7.85313 10.3355C7.67695 10.3355 7.508 10.4055 7.38342 10.5301C7.25885 10.6546 7.18885 10.8236 7.18884 10.9998C7.18882 11.087 7.20599 11.1734 7.23937 11.254C7.27274 11.3346 7.32166 11.4079 7.38335 11.4696C7.44504 11.5313 7.51828 11.5803 7.59888 11.6137C7.67949 11.6471 7.76588 11.6642 7.85313 11.6643H14.1466C14.2339 11.6643 14.3203 11.6471 14.4009 11.6137C14.4815 11.5803 14.5548 11.5313 14.6165 11.4696C14.6782 11.4079 14.7271 11.3347 14.7605 11.254C14.7939 11.1734 14.811 11.087 14.811 10.9998C14.811 10.8236 14.741 10.6546 14.6164 10.53C14.4918 10.4055 14.3228 10.3355 14.1466 10.3355H7.85313ZM7.85313 12.8885C7.67696 12.8885 7.50801 12.9585 7.38344 13.0831C7.25887 13.2076 7.18887 13.3766 7.18884 13.5527C7.18885 13.7289 7.25885 13.8978 7.38342 14.0224C7.508 14.147 7.67695 14.217 7.85313 14.217H14.1466C14.3228 14.217 14.4918 14.147 14.6164 14.0224C14.741 13.8979 14.811 13.7289 14.811 13.5527C14.811 13.3766 14.741 13.2076 14.6164 13.083C14.4918 12.9585 14.3228 12.8885 14.1466 12.8885H7.85313Z" fill="white"/>
</svg>
