<svg width="22" height="22" viewBox="0 0 22 22" fill="none" xmlns="http://www.w3.org/2000/svg">
<path fill-rule="evenodd" clip-rule="evenodd" d="M3.69202 6.72701C3.69202 5.04558 5.04569 3.69189 6.72713 3.69189H15.2729C16.9543 3.69189 18.308 5.04558 18.308 6.72701C18.308 7.20929 18.0099 7.33738 17.5793 7.12269C17.0842 6.87585 16.5267 6.7368 15.9374 6.7368H7.39127C7.02441 6.73684 6.72697 7.03425 6.72697 7.40112C6.72697 7.768 7.02441 8.06541 7.39127 8.06545H15.9374C17.2623 8.06545 18.308 9.11137 18.308 10.4362V15.2729C18.308 16.9544 16.9543 18.3081 15.2729 18.3081H6.72713C5.04569 18.3081 3.69202 16.9544 3.69202 15.2729V6.72701ZM15.8621 13.1611C15.7375 13.0365 15.5685 12.9665 15.3923 12.9665C15.2162 12.9665 15.0472 13.0365 14.9226 13.1611C14.798 13.2857 14.728 13.4547 14.728 13.6309C14.728 13.7181 14.7452 13.8045 14.7786 13.8851C14.8119 13.9657 14.8609 14.039 14.9226 14.1007C14.9842 14.1624 15.0575 14.2113 15.1381 14.2447C15.2187 14.2781 15.3051 14.2953 15.3923 14.2953C15.4796 14.2953 15.566 14.2782 15.6466 14.2448C15.7272 14.2114 15.8005 14.1624 15.8621 14.1007C15.9238 14.039 15.9728 13.9657 16.0061 13.8851C16.0395 13.8045 16.0567 13.7181 16.0567 13.6309C16.0567 13.4547 15.9867 13.2857 15.8621 13.1611Z" fill="#040707"/>
</svg>
