<?xml version="1.0" encoding="UTF-8"?>
<svg id="Layer_1" data-name="Layer 1" xmlns="http://www.w3.org/2000/svg" viewBox="0 0 238 187.48" style="fill: #fbed0f;">
  <defs>
    <style>
      .cls-1 {
        fill: #fbed0f;
      }

      .cls-2 {
        fill: #fedf00;
      }

      .cls-3 {
        fill: #b22024;
      }

      .cls-4 {
        fill: #231f20;
      }
    </style>
  </defs>
  <g>
    <path class="cls-4" d="m43.07,126.36H10.86v29.99h36.03v9.01H0v-83.17h45.04v9.01H10.86v26.28h32.21v8.88Z"/>
    <path class="cls-4" d="m56,82.34h54.21l-39.58,73.74h39.16v9.28h-55.19l41.31-74.16h-39.99l.07-8.86Z"/>
    <path class="cls-4" d="m174.31,82.17h9.5l-28.25,44.64v38.37h-8.6v-38.37l-28.36-44.64h9.6l23.01,35.98,23.11-35.98Z"/>
    <path class="cls-4" d="m234.17,126.36h-32.21v29.99h36.03v9.01h-46.89v-83.17h45.04v9.01h-34.18v26.28h32.21v8.88Z"/>
  </g>
  <g>
    <path class="cls-4" d="m62.76,171.09l6.42,16.09h-.64l-2.49-6.22h-7.2l-2.47,6.22h-.64l6.4-16.09h.64Zm-3.72,9.35h6.8l-3.4-8.55-3.4,8.55Z"/>
    <path class="cls-4" d="m81.27,171.07c2.66,0,4.81,2.17,4.81,4.83s-2.15,4.79-4.81,4.79h-5.95v6.52h-.52v-16.13h6.48Zm-5.95.52v8.57h5.95c2.37,0,4.28-1.89,4.28-4.26s-1.91-4.28-4.28-4.28l-5.95-.02Z"/>
    <path class="cls-4" d="m98.18,171.07c2.66,0,4.81,2.17,4.81,4.83s-2.15,4.79-4.81,4.79h-5.95v6.52h-.52v-16.13h6.48Zm-5.95.52v8.57h5.95c2.37,0,4.28-1.89,4.28-4.26s-1.91-4.28-4.28-4.28l-5.95-.02Z"/>
    <path class="cls-4" d="m112.22,171.09l6.42,16.09h-.64l-2.49-6.22h-7.2l-2.47,6.22h-.64l6.4-16.09h.64Zm-3.72,9.35h6.8l-3.4-8.55-3.4,8.55Z"/>
    <path class="cls-4" d="m135.53,175.89c0,2.39-1.75,4.36-4.04,4.73l3.94,6.58h-.6l-3.9-6.52h-6.15v6.52h-.52v-16.13h6.48c2.66,0,4.81,2.17,4.81,4.83Zm-4.81-4.28h-5.95v8.55h6.01c2.35-.02,4.22-1.91,4.22-4.26s-1.91-4.28-4.28-4.28Z"/>
    <path class="cls-4" d="m141.17,171.07h10.84v.52h-10.32v7.28h8.17v.52h-8.17v7.28h10.32v.52h-10.84v-16.13Z"/>
    <path class="cls-4" d="m157.64,171.07h.52v15.61h10.58v.52h-11.1v-16.13Z"/>
    <path class="cls-4" d="m183.19,172.9s-1.43-1.57-4.71-1.57c-2.86,0-4.75,1.77-4.75,3.74,0,.24.02.5.08.74.54,2.19,2.8,2.53,5.01,3.06,2.41.54,4.75,1.23,5.13,4.02.02.16.04.3.04.46,0,2.19-2.09,4.12-5.33,4.12s-5.83-1.79-5.83-1.79l.32-.44s2.33,1.69,5.51,1.69c2.86,0,4.77-1.65,4.77-3.58,0-.14,0-.26-.02-.4-.34-2.53-2.51-3.08-4.71-3.56-2.45-.54-4.83-1.03-5.41-3.46-.06-.28-.1-.56-.1-.84,0-2.25,2.07-4.3,5.29-4.3,3.56,0,5.11,1.75,5.11,1.75l-.4.36Z"/>
  </g>
  <g>
    <path class="cls-2" d="m49.93,29.81c.45-4.68,9.46-12.6,10.1-13.09.28-.23,1.51-1.3,1.97-1.64-.26,0-4.92,2.41-6.63,3.97-2.42,2.22-5.71,5.07-7.41,8.39-.41.79-.85,1.58-1.19,2.38,1.01,0,2.06,0,3.16,0Z"/>
    <g>
      <path d="m84.72,30.43c-1.19-.02-2.36-.04-3.52-.06l-.67.5c-.36.27-.71.53-1.06.81l-1.52,1.24-.49.42-1.97,1.7c-.26.23-.52.45-.78.68,3.15-.07,6.5-.14,10.01-.22v-5.08Z"/>
      <path class="cls-3" d="m147.09,31.46c-18.06-.31-38.77-.65-57.02-.95v4.88c17.77-.39,38.67-.85,57.02-1.25v-2.68Z"/>
      <path d="m194.54,32.68s0-.01,0-.02c0,0,0,0,0,0-.07-.35-1.01-.4-1.01-.4,0,0-17.73-.31-41.07-.71v2.47c23.19-.51,41.08-.91,41.08-.91,0,0,.94-.05,1-.4,0,0,0,0,0,0,0,0,0-.01,0-.02Z"/>
      <path d="m36.89,33.07c-.02.25-.09,3.09,5.1,3.16.58,0,1.2.01,1.84.02,0,0,13.56-.19,24.44-.4.24-.17.47-.35.72-.53,1.4-1.05,2.82-2.19,4.05-3.19l2.06-1.65.25-.2c-16.63-.25-31.45-.45-33.41-.41-5.2.11-5.07,2.95-5.05,3.19Zm6.14-1.05h1.78s.5,0,.5,0h3.12s1.75-.02,1.75-.02l5.18-.02c.8,0,1.46.46,1.46,1.03,0,.57-.64,1.03-1.45,1.04l-12.32.05c-.8,0-1.46-.46-1.46-1.03,0-.57.64-1.03,1.45-1.04Z"/>
    </g>
    <path class="cls-1" d="m45.35,36c0,.08.02.16.02.25.06.66.14,1.41.36,2.24.24.93.64,1.98,1.33,3,.68,1.02,1.7,2,2.95,2.65,1.24.68,2.67,1.02,4.12,1.13,1.45.09,2.94-.05,4.42-.4,1.48-.33,2.95-.87,4.39-1.56.36-.18.71-.35,1.08-.56.34-.19.66-.35,1.01-.57.71-.42,1.4-.84,2.08-1.3,2.26-1.5,4.42-3.29,6.57-5.14.46-.39.91-.79,1.37-1.19.65-.56,1.31-1.13,1.97-1.7l.5-.42.5-.41c.34-.28.69-.56,1.03-.84.36-.29.72-.56,1.08-.83.34-.25.67-.5,1.01-.76.73-.5,1.45-1.03,2.2-1.51,2.99-1.95,6.2-3.7,9.54-5.2,3.34-1.49,6.78-2.74,10.25-3.75,1.73-.49,3.47-.95,5.2-1.33,1.73-.4,3.45-.7,5.15-.91,6.82-.85,13.31-.38,18.76.45,5.46.84,9.93,2.05,13.02,2.96,1.55.46,2.75.86,3.57,1.13.82.28,1.26.43,1.26.43,0,0-.43-.16-1.24-.46-.81-.3-2.01-.72-3.55-1.23-3.07-1-7.52-2.32-12.99-3.3-5.46-.97-11.98-1.62-18.94-.93-1.74.17-3.5.44-5.26.77-1.76.32-3.54.71-5.32,1.15-3.55.9-7.11,2.04-10.57,3.43-3.46,1.4-6.83,3.07-9.99,4.97-.8.46-1.56.99-2.34,1.47-.76.52-1.54,1.05-2.26,1.58-.36.27-.71.53-1.06.8l-.18.14-.36.28-.52.41c-.69.55-1.38,1.1-2.05,1.64-1.38,1.12-2.73,2.2-4.07,3.2-1.28.96-2.54,1.85-3.82,2.62-.65.4-1.31.78-1.94,1.12-.31.17-.67.35-1,.52-.3.16-.63.3-.95.45-1.27.55-2.55.96-3.78,1.19-2.46.49-4.75.23-6.19-.64-1.47-.84-2.1-2.22-2.38-3.48-.1-.47-.16-.94-.19-1.37-.05-.71-.01-1.34.03-1.77,0-.09.01-.17.02-.25,0-.06.01-.11.02-.17,0-.03,0-.07.01-.1.02-.16.04-.3.05-.41.03-.22.07-.74.07-.74h-3.88s-.01.11-.03.33c0,.11-.02.25-.04.41,0,.08-.02.17-.02.27,0,.08,0,.17-.01.26,0,.03,0,.06,0,.1,0,.25-.02.54-.03.84,0,.3.02.63.03.99Z"/>
  </g>
  <path class="cls-3" d="m86.6,33.16C86.6,14.71,100.66,0,118.72,0s32.12,14.45,32.12,32.9v1.16l-58.05,1.29c1.03,14.19,11.61,24.9,25.93,24.9,9.42,0,16.9-4,22.06-12.13l5.81,1.55c-5.68,10.06-16,16.38-27.86,16.38-18.06,0-32.12-14.58-32.12-32.9Zm57.92-1.74c-1.03-14.58-11.87-25.87-25.8-25.87s-24.9,10.71-25.93,25.03l51.73.84Z"/>
</svg>